<svg width="13" height="28" viewBox="0 0 13 28" fill="none" xmlns="http://www.w3.org/2000/svg">
<path d="M11.5057 8.26549V10.8223H0.920455V8.26549H11.5057ZM4.09091 27.9019V5.55526C4.09091 4.43026 4.35511 3.49276 4.88352 2.74276C5.41193 1.99276 6.09801 1.43026 6.94176 1.05526C7.78551 0.680263 8.67614 0.492763 9.61364 0.492763C10.3551 0.492763 10.9602 0.552422 11.429 0.671741C11.8977 0.791059 12.2472 0.901854 12.4773 1.00413L11.608 3.61208C11.4545 3.56095 11.2415 3.49703 10.9688 3.42032C10.7045 3.34362 10.3551 3.30526 9.92045 3.30526C8.9233 3.30526 8.20313 3.55668 7.75994 4.05953C7.32528 4.56237 7.10795 5.29958 7.10795 6.27117V27.9019H4.09091Z" fill="black"/>
<path d="M11.5057 8.26549H13.0057V6.76549H11.5057V8.26549ZM11.5057 10.8223V12.3223H13.0057V10.8223H11.5057ZM0.920455 10.8223H-0.579545V12.3223H0.920455V10.8223ZM0.920455 8.26549V6.76549H-0.579545V8.26549H0.920455ZM4.09091 27.9019H2.59091V29.4019H4.09091V27.9019ZM4.88352 2.74276L3.6573 1.87883H3.6573L4.88352 2.74276ZM6.94176 1.05526L6.33255 -0.315454H6.33255L6.94176 1.05526ZM11.429 0.671741L11.059 2.12539L11.059 2.12539L11.429 0.671741ZM12.4773 1.00413L13.9003 1.47847L14.331 0.186509L13.0865 -0.36659L12.4773 1.00413ZM11.608 3.61208L11.1336 5.03511L12.5566 5.50945L13.031 4.08642L11.608 3.61208ZM10.9688 3.42032L10.5505 4.86089L10.5626 4.8643L10.9688 3.42032ZM7.75994 4.05953L6.63463 3.06773L6.62986 3.07314L6.62514 3.0786L7.75994 4.05953ZM7.10795 27.9019V29.4019H8.60795V27.9019H7.10795ZM10.0057 8.26549V10.8223H13.0057V8.26549H10.0057ZM11.5057 9.32231H0.920455V12.3223H11.5057V9.32231ZM2.42045 10.8223V8.26549H-0.579545V10.8223H2.42045ZM0.920455 9.76549H11.5057V6.76549H0.920455V9.76549ZM5.59091 27.9019V5.55527H2.59091V27.9019H5.59091ZM5.59091 5.55527C5.59091 4.66862 5.79641 4.05143 6.10975 3.60669L3.6573 1.87883C2.91382 2.93409 2.59091 4.1919 2.59091 5.55527H5.59091ZM6.10975 3.60669C6.481 3.07976 6.95323 2.69164 7.55097 2.42598L6.33255 -0.315454C5.2428 0.168882 4.34287 0.905766 3.6573 1.87883L6.10975 3.60669ZM7.55097 2.42598C8.19992 2.13756 8.8827 1.99276 9.61364 1.99276V-1.00724C8.46958 -1.00724 7.3711 -0.77703 6.33255 -0.315454L7.55097 2.42598ZM9.61364 1.99276C10.289 1.99276 10.7572 2.04857 11.059 2.12539L11.799 -0.781904C11.1633 -0.943729 10.4212 -1.00724 9.61364 -1.00724V1.99276ZM11.059 2.12539C11.5059 2.23915 11.7564 2.32523 11.8681 2.37484L13.0865 -0.36659C12.7379 -0.521525 12.2896 -0.657031 11.799 -0.781905L11.059 2.12539ZM11.0542 0.529786L10.1849 3.13774L13.031 4.08642L13.9003 1.47847L11.0542 0.529786ZM12.0823 2.18906C11.8957 2.12684 11.6563 2.05549 11.3749 1.97634L10.5626 4.8643C10.8267 4.93856 11.0134 4.99505 11.1336 5.03511L12.0823 2.18906ZM11.387 1.9798C10.9318 1.84767 10.4248 1.80526 9.92045 1.80526V4.80526C10.2854 4.80526 10.4773 4.83957 10.5505 4.86084L11.387 1.9798ZM9.92045 1.80526C8.7051 1.80526 7.47801 2.11081 6.63463 3.06773L8.88526 5.05133C8.92824 5.00256 9.1415 4.80526 9.92045 4.80526V1.80526ZM6.62514 3.0786C5.8668 3.9559 5.60795 5.10196 5.60795 6.27117H8.60795C8.60795 5.4972 8.78377 5.16884 8.89474 5.04046L6.62514 3.0786ZM5.60795 6.27117V27.9019H8.60795V6.27117H5.60795ZM7.10795 26.4019H4.09091V29.4019H7.10795V26.4019Z" fill="black"/>
</svg>
